<svg width="220" height="220" viewBox="0 0 220 220" fill="none" xmlns="http://www.w3.org/2000/svg">
<path d="M110 219.602C170.751 219.602 220 192.242 220 158.491C220 124.74 170.751 97.3801 110 97.3801C49.2487 97.3801 0 124.74 0 158.491C0 192.242 49.2487 219.602 110 219.602Z" fill="#8899A6"/>
<path d="M110 208.908C170.751 208.908 220 181.548 220 147.797C220 114.046 170.751 86.6857 110 86.6857C49.2487 86.6857 0 114.046 0 147.797C0 181.548 49.2487 208.908 110 208.908Z" fill="#CCD6DD"/>
<path d="M199.681 144.344C199.681 170.377 159.531 191.473 110.001 191.473C60.47 191.473 20.3199 170.377 20.3199 144.344C20.3199 118.323 60.47 97.2212 110.001 97.2212C159.525 97.2212 199.681 118.323 199.681 144.344Z" fill="url(#paint0_linear_32_18189)"/>
<path d="M196.979 137.365C196.979 197.584 23.0205 197.584 23.0205 137.365V83.8379H196.979V137.365Z" fill="#FFB8C2"/>
<path d="M109.903 110.617C55.0007 110.617 23.0151 85.3656 23.0151 85.3656C23.0151 85.3656 22.9174 91.0123 22.9174 95.6628C22.9174 95.6628 23.1129 125.595 38.6351 125.595C53.6624 125.595 52.5685 139.944 62.0651 141.429C71.4824 142.902 72.5274 135.697 84.2179 135.697C95.9085 135.697 97.9679 148.567 109.903 148.567C123.891 148.567 125.04 135.697 136.725 135.697C148.409 135.697 149.753 143.177 157.417 141.105C166.626 138.612 162.391 125.601 181.171 125.601C196.693 125.601 197.078 97.1967 197.078 97.1967C197.078 92.5523 196.974 85.3717 196.974 85.3717C196.974 85.3717 164.811 110.617 109.903 110.617Z" fill="url(#paint1_linear_32_18189)"/>
<path d="M199.681 77.4397C199.681 103.467 159.531 124.569 110.001 124.569C60.47 124.569 20.3199 103.467 20.3199 77.4397C20.3199 51.4125 60.47 30.3108 110.001 30.3108C159.525 30.3108 199.681 51.4125 199.681 77.4397Z" fill="#CE014E"/>
<path d="M156.835 83.8379C153.138 83.8379 150.144 80.8435 150.144 77.1462V30.3107C150.144 28.5359 150.849 26.8339 152.104 25.579C153.358 24.324 155.06 23.619 156.835 23.619C158.61 23.619 160.312 24.324 161.567 25.579C162.822 26.8339 163.527 28.5359 163.527 30.3107V77.1462C163.527 80.8435 160.532 83.8379 156.835 83.8379Z" fill="#FFF8E8"/>
<path d="M156.836 40.3453C149.735 40.3453 144.149 37.0942 141.894 31.6492C139.939 26.9253 138.967 16.6769 154.471 1.17917C154.782 0.868373 155.15 0.621817 155.556 0.453597C155.962 0.285377 156.397 0.198792 156.836 0.198792C157.275 0.198792 157.71 0.285377 158.116 0.453597C158.522 0.621817 158.891 0.868373 159.201 1.17917C174.705 16.6831 173.733 26.9253 171.778 31.6492C169.523 37.0942 163.937 40.3453 156.836 40.3453Z" fill="#FFD300"/>
<path d="M109.999 103.907C106.302 103.907 103.308 100.913 103.308 97.2153V50.3859C103.308 49.5071 103.481 48.637 103.817 47.8251C104.153 47.0132 104.646 46.2755 105.268 45.6542C105.889 45.0328 106.627 44.5399 107.438 44.2036C108.25 43.8673 109.121 43.6942 109.999 43.6942C110.878 43.6942 111.748 43.8673 112.56 44.2036C113.372 44.5399 114.11 45.0328 114.731 45.6542C115.352 46.2755 115.845 47.0132 116.182 47.8251C116.518 48.637 116.691 49.5071 116.691 50.3859V97.2214C116.691 100.913 113.697 103.907 109.999 103.907Z" fill="#FFF8E8"/>
<path d="M110 60.42C102.899 60.42 97.313 57.1689 95.058 51.7239C93.0963 47 92.1308 36.7517 107.635 21.2539C107.945 20.9431 108.314 20.6966 108.72 20.5284C109.125 20.3601 109.56 20.2736 110 20.2736C110.439 20.2736 110.874 20.3601 111.28 20.5284C111.686 20.6966 112.054 20.9431 112.365 21.2539C127.869 36.7578 126.897 47 124.941 51.7239C122.686 57.1689 117.101 60.42 110 60.42Z" fill="#FFD300"/>
<path d="M63.1644 83.8379C59.4672 83.8379 56.4728 80.8435 56.4728 77.1462V30.3107C56.4728 29.4319 56.6459 28.5618 56.9822 27.7499C57.3184 26.938 57.8113 26.2003 58.4327 25.579C59.0541 24.9576 59.7918 24.4647 60.6037 24.1284C61.4155 23.7921 62.2857 23.619 63.1644 23.619C64.0432 23.619 64.9134 23.7921 65.7252 24.1284C66.5371 24.4647 67.2748 24.9576 67.8962 25.579C68.5175 26.2003 69.0104 26.938 69.3467 27.7499C69.683 28.5618 69.8561 29.4319 69.8561 30.3107V77.1462C69.8561 80.8435 66.8617 83.8379 63.1644 83.8379Z" fill="#FFF8E8"/>
<path d="M63.1637 40.3453C56.0626 40.3453 50.4771 37.0942 48.2221 31.6492C46.2604 26.9253 45.2948 16.6769 60.7987 1.17917C61.1092 0.868373 61.4779 0.621817 61.8837 0.453597C62.2895 0.285377 62.7244 0.198792 63.1637 0.198792C63.603 0.198792 64.038 0.285377 64.4438 0.453597C64.8496 0.621817 65.2183 0.868373 65.5287 1.17917C81.0326 16.6831 80.061 26.9253 78.1054 31.6492C75.8504 37.0942 70.2648 40.3453 63.1637 40.3453Z" fill="#FFD300"/>
<defs>
<linearGradient id="paint0_linear_32_18189" x1="199.681" y1="191.473" x2="22.3132" y2="93.6087" gradientUnits="userSpaceOnUse">
<stop stop-color="#FF4D67"/>
<stop offset="1" stop-color="#FF8395"/>
</linearGradient>
<linearGradient id="paint1_linear_32_18189" x1="197.078" y1="148.567" x2="59.9553" y2="39.0089" gradientUnits="userSpaceOnUse">
<stop stop-color="#FF4D67"/>
<stop offset="1" stop-color="#FF8395"/>
</linearGradient>
</defs>
</svg>
