<svg width="37" height="36" viewBox="0 0 37 36" fill="none" xmlns="http://www.w3.org/2000/svg">
<path fill-rule="evenodd" clip-rule="evenodd" d="M3.5 18.0225C3.5 10.1207 9.815 3 18.53 3C27.05 3 33.5 9.98548 33.5 17.9775C33.5 27.2464 25.94 33 18.5 33C16.04 33 13.31 32.339 11.12 31.0471C10.355 30.5814 9.71 30.2359 8.885 30.5063L5.855 31.4076C5.09 31.648 4.4 31.0471 4.625 30.2359L5.63 26.8708C5.795 26.4051 5.765 25.9094 5.525 25.5188C4.235 23.1452 3.5 20.5463 3.5 18.0225ZM16.55 18.0225C16.55 19.0891 17.405 19.9454 18.47 19.9604C19.535 19.9604 20.39 19.0891 20.39 18.0376C20.39 16.971 19.535 16.1147 18.47 16.1147C17.42 16.0996 16.55 16.971 16.55 18.0225ZM23.465 18.0376C23.465 19.0891 24.32 19.9604 25.385 19.9604C26.45 19.9604 27.305 19.0891 27.305 18.0376C27.305 16.971 26.45 16.1147 25.385 16.1147C24.32 16.1147 23.465 16.971 23.465 18.0376ZM11.555 19.9604C10.505 19.9604 9.635 19.0891 9.635 18.0376C9.635 16.971 10.49 16.1147 11.555 16.1147C12.62 16.1147 13.475 16.971 13.475 18.0376C13.475 19.0891 12.62 19.9454 11.555 19.9604Z" fill="white"/>
</svg>
