<svg width="25" height="24" viewBox="0 0 25 24" fill="none" xmlns="http://www.w3.org/2000/svg">
<path d="M11.8317 7.29052V3.2815C11.8317 2.85523 12.1717 2.5 12.6017 2.5C12.9867 2.5 13.3128 2.79849 13.3645 3.17658L13.3717 3.2815V7.29052L18.1516 7.29083C20.5316 7.29083 22.4869 9.23978 22.5967 11.6704L22.6016 11.8861V16.9254C22.6016 19.373 20.7142 21.3822 18.3696 21.495L18.1616 21.5H7.04156C4.66156 21.5 2.71565 19.5608 2.6064 17.1213L2.60156 16.9047L2.60156 11.8758C2.60156 9.4281 4.47947 7.40921 6.82356 7.29585L7.03156 7.29083H11.8316V13.6932L10.2316 12.041C9.93156 11.7312 9.44156 11.7312 9.14156 12.041C8.99156 12.1959 8.92156 12.4024 8.92156 12.6089C8.92156 12.7659 8.96636 12.9295 9.06108 13.0679L9.14156 13.1666L12.0516 16.1819C12.1916 16.3368 12.3916 16.4194 12.6016 16.4194C12.7682 16.4194 12.9349 16.362 13.0668 16.2533L13.1416 16.1819L16.0516 13.1666C16.3516 12.8568 16.3516 12.3508 16.0516 12.041C15.7788 11.7594 15.3491 11.7338 15.0478 11.9642L14.9616 12.041L13.3716 13.6932V7.29083L11.8317 7.29052Z" fill="#06C149"/>
</svg>
