<svg width="37" height="36" viewBox="0 0 37 36" fill="none" xmlns="http://www.w3.org/2000/svg">
<path d="M20.99 6.45C20.9208 6.11119 20.7367 5.80668 20.4689 5.58801C20.201 5.36933 19.8658 5.24993 19.52 5.25H8.75C8.35218 5.25 7.97064 5.40804 7.68934 5.68934C7.40804 5.97064 7.25 6.35218 7.25 6.75V29.25C7.25 29.6478 7.40804 30.0294 7.68934 30.3107C7.97064 30.592 8.35218 30.75 8.75 30.75C9.14782 30.75 9.52936 30.592 9.81066 30.3107C10.092 30.0294 10.25 29.6478 10.25 29.25V20.25H18.65L19.01 22.05C19.145 22.752 19.7645 23.2575 20.48 23.25H28.25C28.6478 23.25 29.0294 23.092 29.3107 22.8107C29.592 22.5294 29.75 22.1478 29.75 21.75V9.75C29.75 9.35218 29.592 8.97064 29.3107 8.68934C29.0294 8.40804 28.6478 8.25 28.25 8.25H21.35L20.99 6.45Z" fill="white"/>
</svg>
