<svg width="20" height="20" viewBox="0 0 20 20" fill="none" xmlns="http://www.w3.org/2000/svg">
<path d="M7.33479 18.7733V15.7156C7.33479 14.9351 7.97218 14.3023 8.75845 14.3023H11.6326C12.0102 14.3023 12.3723 14.4512 12.6393 14.7163C12.9063 14.9813 13.0563 15.3408 13.0563 15.7156V18.7733C13.0539 19.0978 13.1821 19.4099 13.4124 19.6402C13.6427 19.8705 13.9561 20 14.283 20H16.2438C17.1596 20.0024 18.0388 19.6428 18.6872 19.0008C19.3356 18.3588 19.7 17.487 19.7 16.5778V7.86686C19.7 7.13246 19.3721 6.43584 18.8046 5.96467L12.134 0.675869C10.9737 -0.251438 9.31112 -0.221498 8.1854 0.746979L1.66702 5.96467C1.07275 6.42195 0.717564 7.12064 0.700012 7.86686V16.5689C0.700012 18.4639 2.24739 20 4.15619 20H6.0723C6.75124 20 7.30301 19.4562 7.30793 18.7822L7.33479 18.7733Z" fill="#CE014E"/>
</svg>