<svg width="25" height="24" viewBox="0 0 25 24" fill="none" xmlns="http://www.w3.org/2000/svg">
<path d="M9.33478 20.7733V17.7156C9.33478 16.9351 9.97217 16.3023 10.7584 16.3023H13.6326C14.0102 16.3023 14.3723 16.4512 14.6393 16.7163C14.9063 16.9813 15.0563 17.3408 15.0563 17.7156V20.7733C15.0539 21.0978 15.1821 21.4099 15.4124 21.6402C15.6427 21.8705 15.956 22 16.2829 22H18.2438C19.1596 22.0024 20.0387 21.6428 20.6872 21.0008C21.3356 20.3588 21.7 19.487 21.7 18.5778V9.86686C21.7 9.13246 21.3721 8.43584 20.8046 7.96467L14.134 2.67587C12.9737 1.74856 11.3111 1.7785 10.1854 2.74698L3.66701 7.96467C3.07274 8.42195 2.71755 9.12064 2.7 9.86686V18.5689C2.7 20.4639 4.24738 22 6.15617 22H8.07229C8.75122 22 9.30299 21.4562 9.30791 20.7822L9.33478 20.7733Z" stroke="#9E9E9E" stroke-width="1.5"/>
</svg>
