<svg width="25" height="24" viewBox="0 0 25 24" fill="none" xmlns="http://www.w3.org/2000/svg">
<g clip-path="url(#clip0_32_16716)">
<circle cx="11.6111" cy="12.611" r="9.61098" fill="#CE014E"/>
<path d="M10.2431 17.4853C10.2431 17.4859 10.2424 17.4862 10.2419 17.4858L6.70706 13.9501C6.31661 13.5596 6.31665 12.9265 6.70714 12.536C7.09762 12.1455 7.73068 12.1454 8.12123 12.5359L9.53595 13.9501C9.92652 14.3405 10.5596 14.3404 10.9501 13.9499L15.192 9.70723C15.5825 9.31665 16.2161 9.31696 16.6066 9.70751C16.9972 10.098 16.9975 10.7316 16.6069 11.1221L10.2433 17.4848C10.2432 17.4849 10.2431 17.4851 10.2431 17.4853Z" fill="white"/>
</g>
<defs>
<clipPath id="clip0_32_16716">
<rect width="24" height="24" fill="white" transform="translate(0.400024)"/>
</clipPath>
</defs>
</svg>