<svg width="24" height="24" viewBox="0 0 24 24" fill="none" xmlns="http://www.w3.org/2000/svg">
<path d="M2.3999 12.5999C2.3999 12.3635 2.44646 12.1295 2.53692 11.9111C2.62738 11.6927 2.75996 11.4943 2.92711 11.3271C3.09426 11.16 3.29269 11.0274 3.51107 10.9369C3.72946 10.8465 3.96352 10.7999 4.1999 10.7999C4.43628 10.7999 4.67035 10.8465 4.88873 10.9369C5.10712 11.0274 5.30555 11.16 5.47269 11.3271C5.63984 11.4943 5.77243 11.6927 5.86289 11.9111C5.95334 12.1295 5.9999 12.3635 5.9999 12.5999V19.7999C5.9999 20.2773 5.81026 20.7351 5.47269 21.0727C5.13513 21.4103 4.67729 21.5999 4.1999 21.5999C3.72251 21.5999 3.26468 21.4103 2.92711 21.0727C2.58954 20.7351 2.3999 20.2773 2.3999 19.7999V12.5999ZM7.1999 12.3995V18.9155C7.19969 19.3615 7.32377 19.7987 7.5582 20.1781C7.79263 20.5576 8.12814 20.8641 8.5271 21.0635L8.5871 21.0935C9.25297 21.4263 9.98711 21.5997 10.7315 21.5999H17.2307C17.7857 21.6001 18.3237 21.408 18.753 21.0561C19.1822 20.7043 19.4763 20.2146 19.5851 19.6703L21.0251 12.4703C21.0947 12.1221 21.0862 11.7629 21.0001 11.4184C20.9141 11.074 20.7528 10.7529 20.5277 10.4783C20.3026 10.2037 20.0194 9.98254 19.6985 9.83065C19.3776 9.67875 19.0269 9.59994 18.6719 9.5999H14.3999V4.7999C14.3999 4.16338 14.147 3.55293 13.697 3.10285C13.2469 2.65276 12.6364 2.3999 11.9999 2.3999C11.6816 2.3999 11.3764 2.52633 11.1514 2.75137C10.9263 2.97642 10.7999 3.28164 10.7999 3.5999V4.4003C10.7999 5.43888 10.463 6.44944 9.8399 7.2803L8.1599 9.5195C7.53676 10.3504 7.1999 11.3609 7.1999 12.3995Z" fill="#9E9E9E"/>
</svg>