<svg width="37" height="36" viewBox="0 0 37 36" fill="none" xmlns="http://www.w3.org/2000/svg">
<path d="M4.1 18.9001C4.1 18.5455 4.16984 18.1944 4.30552 17.8669C4.44121 17.5393 4.64009 17.2416 4.89081 16.9909C5.14153 16.7402 5.43917 16.5413 5.76675 16.4056C6.09433 16.2699 6.44543 16.2001 6.8 16.2001C7.15457 16.2001 7.50566 16.2699 7.83324 16.4056C8.16082 16.5413 8.45847 16.7402 8.70919 16.9909C8.95991 17.2416 9.15879 17.5393 9.29447 17.8669C9.43016 18.1944 9.5 18.5455 9.5 18.9001V29.7001C9.5 30.4162 9.21554 31.1029 8.70919 31.6093C8.20284 32.1156 7.51608 32.4001 6.8 32.4001C6.08391 32.4001 5.39716 32.1156 4.89081 31.6093C4.38446 31.1029 4.1 30.4162 4.1 29.7001V18.9001ZM11.3 18.5995V28.3735C11.2997 29.0425 11.4858 29.6983 11.8374 30.2675C12.1891 30.8366 12.6924 31.2965 13.2908 31.5955L13.3808 31.6405C14.3796 32.1397 15.4808 32.3997 16.5974 32.4001H26.3462C27.1788 32.4004 27.9857 32.1122 28.6296 31.5844C29.2735 31.0567 29.7146 30.3221 29.8778 29.5057L32.0378 18.7057C32.1422 18.1835 32.1294 17.6446 32.0004 17.1279C31.8713 16.6112 31.6293 16.1296 31.2916 15.7177C30.954 15.3059 30.5292 14.9741 30.0478 14.7462C29.5665 14.5184 29.0406 14.4002 28.508 14.4001H22.1V7.2001C22.1 6.24532 21.7207 5.32964 21.0456 4.65451C20.3705 3.97938 19.4548 3.6001 18.5 3.6001C18.0226 3.6001 17.5648 3.78974 17.2272 4.12731C16.8896 4.46487 16.7 4.92271 16.7 5.4001V6.6007C16.7 8.15856 16.1947 9.67441 15.26 10.9207L12.74 14.2795C11.8053 15.5258 11.3 17.0416 11.3 18.5995Z" fill="#CE014E"/>
</svg>