<svg width="12" height="13" viewBox="0 0 12 13" fill="none" xmlns="http://www.w3.org/2000/svg">
<path d="M6.44719 9.23563C6.51746 9.30595 6.55694 9.4013 6.55694 9.50071C6.55694 9.60012 6.51746 9.69547 6.44719 9.76579L5.98125 10.2345C5.48851 10.727 4.82033 11.0035 4.12371 11.0033C3.42708 11.0031 2.75908 10.7261 2.26664 10.2334C1.77421 9.74062 1.49769 9.07244 1.49791 8.37582C1.49813 7.67919 1.77507 7.01119 2.26782 6.51875L3.39844 5.38813C3.87173 4.91446 4.50815 4.63957 5.17745 4.6197C5.84676 4.59983 6.49836 4.83649 6.99891 5.28126C7.03584 5.314 7.06597 5.35371 7.08756 5.3981C7.10915 5.44249 7.12178 5.49069 7.12474 5.53997C7.1277 5.58924 7.12093 5.63861 7.10481 5.68527C7.08869 5.73192 7.06353 5.77495 7.03079 5.81188C6.99804 5.84882 6.95833 5.87894 6.91394 5.90053C6.86955 5.92212 6.82135 5.93475 6.77207 5.93771C6.7228 5.94067 6.67343 5.9339 6.62677 5.91778C6.58012 5.90166 6.53709 5.8765 6.50016 5.84376C6.14265 5.52627 5.67736 5.35736 5.19945 5.37157C4.72153 5.38577 4.26709 5.58201 3.92907 5.92016L2.79844 7.04938C2.44674 7.40108 2.24916 7.87809 2.24916 8.37547C2.24916 8.87286 2.44674 9.34987 2.79844 9.70157C3.15014 10.0533 3.62715 10.2509 4.12454 10.2509C4.62192 10.2509 5.09893 10.0533 5.45063 9.70157L5.91657 9.23563C5.95139 9.20076 5.99275 9.1731 6.03828 9.15423C6.0838 9.13536 6.1326 9.12565 6.18188 9.12565C6.23116 9.12565 6.27996 9.13536 6.32548 9.15423C6.37101 9.1731 6.41236 9.20076 6.44719 9.23563ZM9.73219 2.76688C9.23938 2.27517 8.57164 1.99902 7.87547 1.99902C7.17931 1.99902 6.51157 2.27517 6.01875 2.76688L5.55282 3.23329C5.48251 3.30365 5.44304 3.39906 5.44309 3.49853C5.44313 3.598 5.48269 3.69337 5.55305 3.76368C5.62342 3.83398 5.71883 3.87345 5.81829 3.87341C5.91776 3.87336 6.01314 3.83381 6.08344 3.76344L6.54938 3.29751C6.90108 2.9458 7.37809 2.74822 7.87547 2.74822C8.37285 2.74822 8.84986 2.9458 9.20157 3.29751C9.55327 3.64921 9.75085 4.12622 9.75085 4.6236C9.75085 5.12098 9.55327 5.59799 9.20157 5.94969L8.07094 7.08125C7.73273 7.41921 7.2782 7.6152 6.80028 7.62914C6.32237 7.64308 5.85718 7.47392 5.49985 7.15626C5.42526 7.09012 5.32745 7.05632 5.22793 7.0623C5.12842 7.06827 5.03536 7.11354 4.96922 7.18813C4.90308 7.26272 4.86929 7.36053 4.87526 7.46004C4.88124 7.55956 4.92651 7.65262 5.0011 7.71876C5.50153 8.16364 6.15306 8.40047 6.82237 8.38077C7.49167 8.36108 8.12815 8.08636 8.60157 7.61282L9.73219 6.48219C10.2242 5.98934 10.5005 5.3214 10.5005 4.62501C10.5005 3.92861 10.2242 3.26067 9.73219 2.76782V2.76688Z" fill="#CE014E"/>
</svg>