<svg width="25" height="24" viewBox="0 0 25 24" fill="none" xmlns="http://www.w3.org/2000/svg">
<path fill-rule="evenodd" clip-rule="evenodd" d="M5.03988 2H8.41988C9.82988 2 10.9599 3.15 10.9599 4.561V7.97C10.9599 9.39 9.82988 10.53 8.41988 10.53H5.03988C3.63988 10.53 2.49988 9.39 2.49988 7.97V4.561C2.49988 3.15 3.63988 2 5.03988 2ZM5.03988 13.4697H8.41988C9.82988 13.4697 10.9599 14.6107 10.9599 16.0307V19.4397C10.9599 20.8497 9.82988 21.9997 8.41988 21.9997H5.03988C3.63988 21.9997 2.49988 20.8497 2.49988 19.4397V16.0307C2.49988 14.6107 3.63988 13.4697 5.03988 13.4697ZM19.96 2H16.58C15.17 2 14.04 3.15 14.04 4.561V7.97C14.04 9.39 15.17 10.53 16.58 10.53H19.96C21.36 10.53 22.5 9.39 22.5 7.97V4.561C22.5 3.15 21.36 2 19.96 2ZM16.58 13.4697H19.96C21.36 13.4697 22.5 14.6107 22.5 16.0307V19.4397C22.5 20.8497 21.36 21.9997 19.96 21.9997H16.58C15.17 21.9997 14.04 20.8497 14.04 19.4397V16.0307C14.04 14.6107 15.17 13.4697 16.58 13.4697Z" fill="#CE014E"/>
</svg>