<svg width="186" height="180" viewBox="0 0 186 180" fill="none" xmlns="http://www.w3.org/2000/svg">
<circle cx="95.5002" cy="90.5" r="70.5" fill="url(#paint0_linear_0_1)"/>
<circle cx="178.467" cy="27.5" r="7.5" fill="#CE014E"/>
<circle cx="20.0334" cy="10" r="10" fill="#CE014E"/>
<circle cx="10.0334" cy="133" r="5" fill="#CE014E"/>
<circle cx="165.533" cy="160.5" r="2.5" fill="#CE014E"/>
<circle cx="106.533" cy="4.5" r="2.5" fill="#CE014E"/>
<circle cx="62.5334" cy="176.5" r="3.5" fill="#CE014E"/>
<circle cx="122.033" cy="171" r="1" fill="#CE014E"/>
<circle cx="170.533" cy="110.5" r="2.5" fill="#CE014E"/>
<circle cx="1.03345" cy="75" r="1" fill="#CE014E"/>
<path d="M79.971 63H94.6679L90.9472 87.6316H76.2502L79.971 63Z" fill="white"/>
<path d="M100.387 63H115.276C118.281 63 120.522 65.7786 119.894 68.7266L115.867 87.6316H95.1402L100.387 63Z" fill="white"/>
<path d="M94.2482 92.3684H114.975L110.526 113.253C110.06 115.438 108.135 117 105.907 117H89.001L94.2482 92.3684Z" fill="white"/>
<path d="M75.7207 92.3684H90.4177L86.697 117H72L75.7207 92.3684Z" fill="white"/>
<defs>
<linearGradient id="paint0_linear_0_1" x1="166" y1="161" x2="-1.7771" y2="112.355" gradientUnits="userSpaceOnUse">
<stop stop-color="#CE014E"/>
<stop offset="1" stop-color="#CE014E"/>
</linearGradient>
</defs>
</svg>
