<svg width="18" height="20" viewBox="0 0 18 20" fill="none" xmlns="http://www.w3.org/2000/svg">
<path d="M17.7937 14.4944C17.2734 13.5981 16.5 11.0622 16.5 7.75C16.5 5.76088 15.7098 3.85322 14.3033 2.4467C12.8968 1.04018 10.9891 0.25 9 0.25C7.01087 0.25 5.10322 1.04018 3.6967 2.4467C2.29017 3.85322 1.5 5.76088 1.5 7.75C1.5 11.0631 0.725622 13.5981 0.205309 14.4944C0.0724379 14.7222 0.00199771 14.9811 0.00109222 15.2449C0.000186718 15.5086 0.0688481 15.768 0.200152 15.9967C0.331456 16.2255 0.520759 16.4156 0.74897 16.5478C0.977182 16.6801 1.23623 16.7498 1.5 16.75H5.32593C5.49897 17.5967 5.95914 18.3577 6.62862 18.9042C7.2981 19.4507 8.13579 19.7492 9 19.7492C9.86421 19.7492 10.7019 19.4507 11.3714 18.9042C12.0408 18.3577 12.501 17.5967 12.6741 16.75H16.5C16.7637 16.7496 17.0226 16.6798 17.2507 16.5475C17.4788 16.4151 17.6679 16.225 17.7991 15.9963C17.9303 15.7676 17.9989 15.5083 17.998 15.2446C17.997 14.9809 17.9266 14.7222 17.7937 14.4944ZM9 18.25C8.53483 18.2499 8.08114 18.1055 7.70137 17.8369C7.3216 17.5683 7.03443 17.1886 6.87937 16.75H11.1206C10.9656 17.1886 10.6784 17.5683 10.2986 17.8369C9.91886 18.1055 9.46517 18.2499 9 18.25ZM1.5 15.25C2.22187 14.0087 3 11.1325 3 7.75C3 6.1587 3.63214 4.63258 4.75736 3.50736C5.88257 2.38214 7.4087 1.75 9 1.75C10.5913 1.75 12.1174 2.38214 13.2426 3.50736C14.3679 4.63258 15 6.1587 15 7.75C15 11.1297 15.7762 14.0059 16.5 15.25H1.5Z" fill="#9E9E9E"/>
</svg>
