<svg width="37" height="36" viewBox="0 0 37 36" fill="none" xmlns="http://www.w3.org/2000/svg">
<path d="M20 22.1999C20 21.5372 19.4627 20.9999 18.8 20.9999H17C14.5394 20.999 12.1253 21.6707 10.0188 22.9423C8.26033 24.0038 6.77199 25.4497 5.66188 27.1654C5.47018 27.4617 4.99982 27.3528 5 26.9999C5 19.1193 11.0767 12.6584 18.8002 12.0472C19.4608 11.9949 20 11.4627 20 10.7999V6.99669C20 5.99048 21.1639 5.43107 21.9496 6.05964L33.8287 15.5629C34.4292 16.0433 34.4292 16.9566 33.8287 17.437L21.9496 26.9402C21.1639 27.5688 20 27.0094 20 26.0032V22.1999Z" fill="white"/>
</svg>