<svg width="37" height="36" viewBox="0 0 37 36" fill="none" xmlns="http://www.w3.org/2000/svg">
<path fill-rule="evenodd" clip-rule="evenodd" d="M13.85 3H23.105C27.17 3 30.455 4.605 30.5 8.685V31.455C30.5 31.71 30.44 31.965 30.32 32.19C30.125 32.55 29.795 32.82 29.39 32.94C29 33.06 28.565 33 28.205 32.79L18.485 27.93L8.75 32.79C8.5265 32.9085 8.27 32.985 8.015 32.985C7.175 32.985 6.5 32.295 6.5 31.455V8.685C6.5 4.605 9.8 3 13.85 3ZM12.83 14.43H24.125C24.77 14.43 25.295 13.9035 25.295 13.245C25.295 12.585 24.77 12.06 24.125 12.06H12.83C12.185 12.06 11.66 12.585 11.66 13.245C11.66 13.9035 12.185 14.43 12.83 14.43Z" fill="white"/>
</svg>